<?xml version="1.0" encoding="utf-8"?>
<!-- Generator: Adobe Illustrator 15.1.0, SVG Export Plug-In  -->
<!DOCTYPE svg PUBLIC "-//W3C//DTD SVG 1.1//EN" "http://www.w3.org/Graphics/SVG/1.1/DTD/svg11.dtd" [
	<!ENTITY ns_flows "http://ns.adobe.com/Flows/1.0/">
]>
<svg version="1.1"
	 xmlns="http://www.w3.org/2000/svg" xmlns:xlink="http://www.w3.org/1999/xlink" xmlns:a="http://ns.adobe.com/AdobeSVGViewerExtensions/3.0/"
	 x="0px" y="0px" width="85px" height="85px" viewBox="0.001 0 85 85" enable-background="new 0.001 0 85 85" xml:space="preserve">
<defs>
</defs>
<circle fill="none" cx="42.521" cy="42.52" r="42.521"/>
<g>
	<path d="M60.473,9.69v8.388h-2.348v-6.317c-0.625,0.303-1.207,0.473-1.744,0.51v-1.106c1.232-0.123,2.102-0.614,2.605-1.475H60.473
		z"/>
</g>
<g>
	<path d="M74.201,28.199v2.016h-6.256v-1.186c0.514-0.565,1.102-1.167,1.764-1.807c1.488-1.422,2.23-2.508,2.23-3.263
		c0-1.003-0.396-1.506-1.191-1.506c-0.967,0-1.451,0.606-1.451,1.819c0,0.286,0.072,0.689,0.209,1.21l-1.295-0.307
		c-0.1-0.386-0.148-0.695-0.148-0.928c0-1.7,1.051-2.55,3.152-2.55c0.889,0,1.619,0.219,2.195,0.658
		c0.572,0.439,0.859,0.999,0.859,1.684c0,0.783-0.568,1.634-1.703,2.556l-0.762,0.615l-0.842,0.706
		c-0.053,0.044-0.184,0.141-0.393,0.283H74.201z"/>
</g>
<g>
	<path d="M72.525,43.952l1.125-0.061c-0.096,0.324-0.148,0.612-0.16,0.866c-0.041,0.897,0.432,1.346,1.42,1.346
		c0.971,0,1.457-0.547,1.457-1.641c0-1.106-0.582-1.659-1.74-1.659l-0.664,0.012v-0.989l0.479,0.006
		c1.223,0,1.832-0.516,1.832-1.549c0-0.897-0.432-1.346-1.297-1.346c-0.852,0-1.277,0.396-1.277,1.186
		c0,0.193,0.023,0.417,0.072,0.67l-1.123-0.234c0-1.585,0.922-2.378,2.764-2.378c2.129,0,3.191,0.725,3.191,2.175
		c0,0.95-0.602,1.597-1.803,1.936c1.361,0.312,2.041,1.015,2.041,2.114c0,1.635-1.133,2.452-3.396,2.452
		c-2.018,0-3.025-0.676-3.025-2.028C72.42,44.576,72.455,44.284,72.525,43.952z"/>
</g>
<g>
	<path d="M73.814,61.543h-0.928v1.751h-2.385v-1.751h-3.121v-1.038l3.908-5.599h1.598v5.69h0.928V61.543z M68.467,60.597h2.072
		v-3.208L68.467,60.597z"/>
</g>
<g>
	<path d="M61.811,66.938l-0.318,1.764h-3.977l-0.314,1.794c0.672-0.455,1.369-0.683,2.09-0.683c0.871,0,1.588,0.257,2.148,0.769
		c0.559,0.511,0.838,1.167,0.838,1.967c0,0.892-0.314,1.603-0.943,2.128c-0.629,0.527-1.479,0.791-2.547,0.791
		c-1.934,0-2.9-0.664-2.9-1.991c0-0.193,0.027-0.43,0.086-0.713l1.088-0.228c-0.07,0.337-0.105,0.644-0.105,0.922
		c0,0.835,0.445,1.253,1.336,1.253c1.064,0,1.596-0.756,1.596-2.267c0-1.069-0.451-1.604-1.357-1.604
		c-0.541,0-1.023,0.288-1.445,0.86l-0.971-0.233l0.787-4.529H61.811z"/>
</g>
<g>
	<path d="M45.396,73.583l-1.119,0.185c0.049-0.271,0.074-0.501,0.074-0.695c0-0.753-0.355-1.13-1.068-1.13
		c-0.514,0-0.871,0.202-1.08,0.606c-0.207,0.403-0.359,1.195-0.457,2.375c0.512-0.447,1.045-0.669,1.598-0.669
		c0.721,0,1.318,0.251,1.795,0.755c0.475,0.504,0.713,1.138,0.713,1.905c0,0.922-0.279,1.659-0.84,2.212
		c-0.559,0.553-1.303,0.829-2.232,0.829c-2.395,0-3.59-1.401-3.59-4.203c0-1.364,0.344-2.452,1.029-3.263
		c0.688-0.812,1.607-1.217,2.762-1.217c1.627,0,2.439,0.641,2.439,1.923C45.42,73.307,45.412,73.436,45.396,73.583z M42.631,75.113
		c-0.643,0-0.965,0.647-0.965,1.942c0,1.487,0.303,2.231,0.91,2.231c0.59,0,0.885-0.787,0.885-2.36
		C43.461,75.717,43.184,75.113,42.631,75.113z"/>
</g>
<g>
	<path d="M29.076,67.008v1.291c-1.447,1.893-2.17,4.094-2.17,6.606v0.492h-2.715c0.146-2.438,1.121-4.597,2.924-6.478h-4.32
		l0.289-1.911H29.076z"/>
</g>
<g>
	<path d="M11.934,59.012c-0.75-0.524-1.125-1.183-1.125-1.973c0-0.758,0.291-1.37,0.875-1.837c0.586-0.467,1.352-0.7,2.301-0.7
		c0.834,0,1.506,0.182,2.02,0.543c0.514,0.364,0.771,0.838,0.771,1.423c0,0.651-0.342,1.173-1.027,1.567
		c1.119,0.59,1.68,1.377,1.68,2.366c0,0.824-0.322,1.49-0.963,2.001c-0.641,0.509-1.48,0.765-2.518,0.765
		c-0.957,0-1.752-0.231-2.383-0.691c-0.631-0.462-0.947-1.039-0.947-1.737C10.617,59.98,11.057,59.404,11.934,59.012z
		 M12.521,59.361c-0.557,0.344-0.834,0.803-0.834,1.376c0,0.483,0.217,0.897,0.65,1.242s0.953,0.516,1.555,0.516
		c0.471,0,0.871-0.126,1.199-0.381s0.492-0.562,0.492-0.922c0-0.59-0.469-1.023-1.402-1.303
		C13.723,59.755,13.17,59.579,12.521,59.361z M15.178,57.776c0.352-0.308,0.527-0.672,0.527-1.094c0-1.008-0.592-1.512-1.775-1.512
		c-1.004,0-1.506,0.363-1.506,1.088c0,0.437,0.451,0.799,1.352,1.082l0.953,0.295C14.822,57.667,14.973,57.715,15.178,57.776z"/>
</g>
<g>
	<path d="M6.795,44.6l1.111-0.221c-0.041,0.246-0.061,0.462-0.061,0.652c0,0.769,0.365,1.155,1.092,1.155
		c0.506,0,0.857-0.195,1.055-0.587c0.199-0.391,0.348-1.185,0.445-2.381c-0.512,0.467-1.035,0.701-1.572,0.701
		c-0.738,0-1.342-0.257-1.813-0.771c-0.471-0.515-0.707-1.172-0.707-1.976c0-0.897,0.283-1.62,0.852-2.166
		c0.566-0.548,1.314-0.821,2.246-0.821c2.371,0,3.559,1.426,3.559,4.277c0,1.364-0.344,2.439-1.027,3.221
		c-0.686,0.781-1.621,1.173-2.809,1.173c-1.594,0-2.391-0.596-2.391-1.788C6.775,44.957,6.781,44.802,6.795,44.6z M9.633,38.855
		c-0.598,0-0.896,0.772-0.896,2.316c0,1.259,0.262,1.886,0.785,1.886c0.668,0,1.004-0.676,1.004-2.027
		C10.525,39.58,10.227,38.855,9.633,38.855z"/>
</g>
<g>
	<path d="M13.182,21.803v8.389h-2.23v-6.317c-0.596,0.303-1.146,0.473-1.658,0.51v-1.106c1.172-0.123,1.996-0.614,2.477-1.475
		H13.182z"/>
</g>
<g>
	<path d="M17.488,21.674c2.223,0,3.334,1.443,3.334,4.327c0,2.883-1.111,4.326-3.334,4.326c-2.227,0-3.338-1.443-3.338-4.326
		C14.15,23.117,15.262,21.674,17.488,21.674z M17.488,22.344c-0.605,0-0.91,1.218-0.91,3.657c0,2.438,0.305,3.656,0.91,3.656
		c0.604,0,0.906-1.218,0.906-3.656C18.395,23.562,18.092,22.344,17.488,22.344z"/>
</g>
<g>
	<path d="M25.348,9.69v8.388h-2.23v-6.317c-0.594,0.303-1.146,0.473-1.658,0.51v-1.106c1.172-0.123,1.998-0.614,2.477-1.475H25.348z
		"/>
</g>
<g>
	<path d="M30.242,9.69v8.388h-2.229v-6.317c-0.596,0.303-1.148,0.473-1.66,0.51v-1.106c1.172-0.123,1.998-0.614,2.477-1.475H30.242z
		"/>
</g>
<g>
	<path d="M40.807,5.517v8.388h-2.348V7.588c-0.627,0.302-1.209,0.473-1.746,0.51V6.991c1.234-0.123,2.104-0.614,2.605-1.475H40.807z
		"/>
</g>
<g>
	<path d="M48.26,11.889v2.016h-6.256v-1.186c0.514-0.565,1.1-1.167,1.764-1.806c1.488-1.422,2.23-2.509,2.23-3.264
		c0-1.003-0.396-1.506-1.191-1.506c-0.967,0-1.451,0.606-1.451,1.819c0,0.287,0.07,0.689,0.209,1.21L42.27,8.866
		c-0.1-0.386-0.148-0.694-0.148-0.928c0-1.7,1.051-2.55,3.152-2.55c0.889,0,1.621,0.219,2.193,0.658
		c0.574,0.438,0.859,0.999,0.859,1.684c0,0.783-0.566,1.635-1.701,2.557L45.863,10.9l-0.842,0.707
		c-0.053,0.044-0.186,0.14-0.393,0.283H48.26z"/>
</g>
</svg>
