<?xml version="1.0" encoding="utf-8"?>
<!-- Generator: Adobe Illustrator 15.1.0, SVG Export Plug-In  -->
<!DOCTYPE svg PUBLIC "-//W3C//DTD SVG 1.1//EN" "http://www.w3.org/Graphics/SVG/1.1/DTD/svg11.dtd" [
	<!ENTITY ns_flows "http://ns.adobe.com/Flows/1.0/">
]>
<svg version="1.1"
	 xmlns="http://www.w3.org/2000/svg" xmlns:xlink="http://www.w3.org/1999/xlink" xmlns:a="http://ns.adobe.com/AdobeSVGViewerExtensions/3.0/"
	 x="0px" y="0px" width="58px" height="24px" viewBox="0 0 58 24" enable-background="new 0 0 58 24" xml:space="preserve">
<defs>
</defs>
<path fill="#FFFFFF" stroke="#000000" stroke-miterlimit="10" d="M0.5,4.229c0,1.938,0,18.948,0,18.948h5.67c0,0,0-16.885,0-18.636
	V3.67c0-2.06-1.27-3.17-2.834-3.17C1.77,0.5,0.5,1.61,0.5,3.67V4.229z"/>
<path fill="#FFFFFF" stroke="#000000" stroke-miterlimit="10" d="M51.523,4.229c0,1.938,0,18.948,0,18.948h5.67
	c0,0,0-16.885,0-18.636V3.67c0-2.06-1.27-3.17-2.834-3.17c-1.566,0-2.836,1.11-2.836,3.17V4.229z"/>
</svg>
