<?xml version="1.0" encoding="utf-8"?>
<!-- Generator: Adobe Illustrator 15.1.0, SVG Export Plug-In  -->
<!DOCTYPE svg PUBLIC "-//W3C//DTD SVG 1.1//EN" "http://www.w3.org/Graphics/SVG/1.1/DTD/svg11.dtd" [
	<!ENTITY ns_flows "http://ns.adobe.com/Flows/1.0/">
]>
<svg version="1.1"
	 xmlns="http://www.w3.org/2000/svg" xmlns:xlink="http://www.w3.org/1999/xlink" xmlns:a="http://ns.adobe.com/AdobeSVGViewerExtensions/3.0/"
	 x="0px" y="0px" width="85px" height="85px" viewBox="0.001 0 85 85" enable-background="new 0.001 0 85 85" xml:space="preserve">
<defs>
</defs>
<circle fill="none" cx="42.521" cy="42.52" r="42.521"/>
<rect x="24.773" y="8.565" transform="matrix(0.8661 -0.4999 0.4999 0.8661 -3.6084 14.9979)" width="2.835" height="11.339"/>
<rect x="57.434" y="65.136" transform="matrix(0.866 -0.5 0.5 0.866 -27.5193 38.9147)" width="2.834" height="11.339"/>
<rect x="12.818" y="20.519" transform="matrix(0.5 -0.8661 0.8661 0.5 -15.5631 25.4239)" width="2.834" height="11.34"/>
<rect x="69.389" y="53.181" transform="matrix(0.5 -0.866 0.866 0.5 -15.5644 90.7423)" width="2.834" height="11.339"/>
<rect x="12.818" y="53.18" transform="matrix(-0.5 -0.8661 0.8661 -0.5 -29.6152 100.6018)" width="2.834" height="11.34"/>
<rect x="69.39" y="20.52" transform="matrix(-0.5 -0.866 0.866 -0.5 83.5319 100.6041)" width="2.834" height="11.339"/>
<rect x="24.773" y="65.135" transform="matrix(-0.8659 -0.5002 0.5002 -0.8659 13.4556 145.2176)" width="2.834" height="11.34"/>
<rect x="57.435" y="8.565" transform="matrix(-0.8661 -0.4999 0.4999 -0.8661 102.7069 55.9832)" width="2.834" height="11.339"/>
<rect x="4.189" y="41.103" width="11.34" height="2.834"/>
<rect x="69.513" y="41.103" width="11.339" height="2.834"/>
<rect x="41.104" y="4.189" width="2.834" height="11.339"/>
<rect x="41.104" y="69.512" width="2.834" height="11.339"/>
</svg>
