<?xml version="1.0" encoding="utf-8"?>
<!-- Generator: Adobe Illustrator 15.1.0, SVG Export Plug-In  -->
<!DOCTYPE svg PUBLIC "-//W3C//DTD SVG 1.1//EN" "http://www.w3.org/Graphics/SVG/1.1/DTD/svg11.dtd" [
	<!ENTITY ns_flows "http://ns.adobe.com/Flows/1.0/">
]>
<svg version="1.1"
	 xmlns="http://www.w3.org/2000/svg" xmlns:xlink="http://www.w3.org/1999/xlink" xmlns:a="http://ns.adobe.com/AdobeSVGViewerExtensions/3.0/"
	 x="0px" y="0px" width="46px" height="41px" viewBox="0 0 46 41" enable-background="new 0 0 46 41" xml:space="preserve">
<defs>
</defs>
<path fill="#FFFFFF" stroke="#000000" d="M45.854,17.365C45.641,5.935,29.682,0.5,23.178,0.5C16.672,0.5,0.713,5.935,0.5,17.365
	c-0.002,0.132,0.018,0.26,0.023,0.389C0.516,17.802,0.5,17.848,0.5,17.895c0.334,4.259,0.705,8.516,0.979,12.777
	c0.105,1.656,0.172,2.336,0.41,3.981c0.15,1.068,0.242,2.323,0.775,3.291c0.553,1.01,1.658,0.564,2.148-0.288
	c0.586-1.009,0.313-2.335,0.299-3.441c-0.021-2.187,0.004-3.393,0.006-5.579c0-0.521,0-1.043,0-1.565v-8.489v-0.687v-0.529
	c0-4.866,8.086-8.812,18.061-8.812s18.059,3.945,18.059,8.812v0.529v0.687v8.489c0,0.522,0,1.045,0,1.565
	c0.006,2.187,0.029,3.393,0.006,5.579c-0.012,1.106-0.283,2.433,0.299,3.441c0.492,0.853,1.598,1.298,2.15,0.288
	c0.531-0.968,0.623-2.223,0.773-3.291c0.238-1.646,0.305-2.325,0.41-3.981c0.277-4.262,0.648-8.519,0.979-12.777
	c0-0.047-0.014-0.093-0.021-0.141C45.836,17.625,45.855,17.497,45.854,17.365z"/>
<path fill="#FFFFFF" stroke="#000000" d="M25.4,38.831c0,0.747-0.996,1.354-2.225,1.354l0,0c-1.227,0-2.223-0.606-2.223-1.354V7.287
	c0-0.746,0.996-1.353,2.223-1.353l0,0c1.229,0,2.225,0.606,2.225,1.353V38.831z"/>
</svg>
