<?xml version="1.0" encoding="utf-8"?>
<!-- Generator: Adobe Illustrator 15.1.0, SVG Export Plug-In  -->
<!DOCTYPE svg PUBLIC "-//W3C//DTD SVG 1.1//EN" "http://www.w3.org/Graphics/SVG/1.1/DTD/svg11.dtd" [
	<!ENTITY ns_flows "http://ns.adobe.com/Flows/1.0/">
]>
<svg version="1.1"
	 xmlns="http://www.w3.org/2000/svg" xmlns:xlink="http://www.w3.org/1999/xlink" xmlns:a="http://ns.adobe.com/AdobeSVGViewerExtensions/3.0/"
	 x="0px" y="0px" width="59px" height="44px" viewBox="0.001 0.141 59 44" enable-background="new 0.001 0.141 59 44"
	 xml:space="preserve">
<defs>
</defs>
<path fill="#FFFFFF" stroke="#000000" d="M58.609,19.359C58.332,6.577,38.006,0.5,29.545,0.5C21.078,0.5,0.775,6.577,0.5,19.359
	c-0.002,0.146,0.021,0.29,0.029,0.434C0.52,19.847,0.5,19.898,0.5,19.951c0.432,4.762,0.916,9.522,1.271,14.287
	c0.137,1.853,0.225,2.612,0.535,4.452c0.193,1.195,0.314,2.599,1.008,3.681c0.719,1.129,1.697,0.631,2.334-0.322
	c0.764-1.128,0.408-2.611,0.391-3.849c-0.029-2.444,0.004-3.793,0.006-6.239c0-0.581,0-1.166,0-1.75v-9.492v-0.768v-0.592
	c0-5.442,10.52-9.854,23.5-9.854c12.977,0,23.494,4.411,23.494,9.854v0.592v0.768v9.492c0,0.584,0,1.169,0,1.75
	c0.006,2.446,0.037,3.795,0.006,6.239c-0.014,1.237-0.365,2.721,0.391,3.849c0.639,0.953,1.643,1.451,2.361,0.322
	c0.689-1.082,0.811-2.485,1.006-3.681c0.311-1.84,0.396-2.6,0.535-4.452c0.359-4.765,0.842-9.525,1.271-14.287
	c0-0.053-0.018-0.104-0.027-0.158C58.588,19.649,58.611,19.506,58.609,19.359z"/>
<path fill="#FFFFFF" stroke="#000000" d="M31.922,41.574c0,0.952-1.059,1.728-2.367,1.728l0,0c-1.309,0-2.369-0.775-2.369-1.728
	V7.707c0-0.954,1.061-1.728,2.369-1.728l0,0c1.309,0,2.367,0.773,2.367,1.728V41.574z"/>
</svg>
