<?xml version="1.0" encoding="utf-8"?>
<!-- Generator: Adobe Illustrator 15.1.0, SVG Export Plug-In  -->
<!DOCTYPE svg PUBLIC "-//W3C//DTD SVG 1.1//EN" "http://www.w3.org/Graphics/SVG/1.1/DTD/svg11.dtd" [
	<!ENTITY ns_flows "http://ns.adobe.com/Flows/1.0/">
]>
<svg version="1.1"
	 xmlns="http://www.w3.org/2000/svg" xmlns:xlink="http://www.w3.org/1999/xlink" xmlns:a="http://ns.adobe.com/AdobeSVGViewerExtensions/3.0/"
	 x="0px" y="0px" width="53px" height="44px" viewBox="0 0 53 44" enable-background="new 0 0 53 44" xml:space="preserve">
<defs>
</defs>
<path fill="#FFFFFF" stroke="#000000" d="M5.061,12.727h43.324c2.268,0,4.553,1.891,4.557,4.225v-6.544V6.852
	c0-3.509-3.145-6.352-6.473-6.352H6.973C3.645,0.5,0.5,3.343,0.5,6.852v3.556v6.554C0.5,14.622,2.787,12.727,5.061,12.727z"/>
<path fill="#FFFFFF" stroke="#000000" d="M2.236,42.001c0.793,0,1.586-0.703,1.586-1.569V36.33c0.004,0.002,0.006,0.004,0.01,0.006
	V16.822c0-1.17,0.906-2.118,2.025-2.118h41.727c1.119,0,2.025,0.948,2.025,2.118v19.514c0.004-0.002,0.006-0.004,0.01-0.006v4.102
	c0,0.866,0.873,1.569,1.668,1.569c0.793,0,1.654-0.703,1.654-1.569v-9.509V16.951c-0.004-2.334-2.289-4.225-4.557-4.225H5.061
	c-2.273,0-4.561,1.896-4.561,4.234v13.962v9.509C0.5,41.298,1.439,42.001,2.236,42.001z"/>
<path fill="#FFFFFF" stroke="#000000" d="M29.09,41.292c0,0.952-1.061,1.728-2.369,1.728l0,0c-1.309,0-2.367-0.775-2.367-1.728
	V11.751c0-0.954,1.059-1.728,2.367-1.728l0,0c1.309,0,2.369,0.773,2.369,1.728V41.292z"/>
</svg>
