<?xml version="1.0" encoding="utf-8"?>
<!-- Generator: Adobe Illustrator 15.1.0, SVG Export Plug-In  -->
<!DOCTYPE svg PUBLIC "-//W3C//DTD SVG 1.1//EN" "http://www.w3.org/Graphics/SVG/1.1/DTD/svg11.dtd" [
	<!ENTITY ns_flows "http://ns.adobe.com/Flows/1.0/">
]>
<svg version="1.1"
	 xmlns="http://www.w3.org/2000/svg" xmlns:xlink="http://www.w3.org/1999/xlink" xmlns:a="http://ns.adobe.com/AdobeSVGViewerExtensions/3.0/"
	 x="0px" y="0px" width="57px" height="57px" viewBox="-13.361 -6.586 57 57" enable-background="new -13.361 -6.586 57 57"
	 xml:space="preserve">
<defs>
</defs>
<path fill="none" stroke="#000000" d="M19.682,38.723c3.037,0,5.019-0.397,6.21-1.454c1.261-1.125,1.722-1.983,2.123-2.713
	c0.453-0.198,1.184,0,1.456,0.396c-0.861,3.309-2.056,6.747-3.049,8.067c-2.713-0.131-5.484-0.196-8.526-0.196H8.305
	c-3.703,0-5.886,0.065-7.337,0.196C0.829,42.958,0.5,42.691,0.5,42.162c0-0.198,0.329-0.462,0.73-0.729
	c3.037-1.982,5.217-4.232,10.116-9.52c4.364-4.699,9.457-11.112,9.457-18.188c0-6.017-2.908-9.656-8.266-9.656
	c-3.966,0-6.81,2.713-8.601,6.614c-0.594,0.334-1.58,0-1.58-0.858C4.465,4.004,9.694,0.5,15.642,0.5
	c6.616,0,10.911,4.428,10.911,10.778c0,4.099-1.915,8.596-7.074,14.551l-4.035,4.625c-5.417,6.217-6.012,7.277-6.012,7.673
	c0,0.464,0.324,0.595,2.046,0.595H19.682z"/>
</svg>
