<?xml version="1.0" encoding="utf-8"?>
<!-- Generator: Adobe Illustrator 15.1.0, SVG Export Plug-In  -->
<!DOCTYPE svg PUBLIC "-//W3C//DTD SVG 1.1//EN" "http://www.w3.org/Graphics/SVG/1.1/DTD/svg11.dtd" [
	<!ENTITY ns_flows "http://ns.adobe.com/Flows/1.0/">
]>
<svg version="1.1"
	 xmlns="http://www.w3.org/2000/svg" xmlns:xlink="http://www.w3.org/1999/xlink" xmlns:a="http://ns.adobe.com/AdobeSVGViewerExtensions/3.0/"
	 x="0px" y="0px" width="57px" height="57px" viewBox="-12.062 -6.586 57 57" enable-background="new -12.062 -6.586 57 57"
	 xml:space="preserve">
<defs>
</defs>
<path fill="none" stroke="#000000" stroke-miterlimit="10" d="M31.728,32.958V43.02H0.5v-5.921c2.563-2.822,5.501-5.828,8.803-9.02
	c7.433-7.098,11.138-12.522,11.138-16.288c0-5.007-1.981-7.517-5.948-7.517c-4.827,0-7.244,3.025-7.244,9.081
	c0,1.429,0.36,3.442,1.042,6.044l-6.465-1.534c-0.497-1.928-0.741-3.468-0.741-4.632C1.084,4.746,6.328,0.5,16.822,0.5
	c4.437,0,8.08,1.092,10.959,3.284c2.855,2.191,4.289,4.987,4.289,8.407c0,3.908-2.838,8.158-8.502,12.761l-3.802,3.069l-4.202,3.524
	c-0.263,0.221-0.918,0.703-1.96,1.414H31.728z"/>
</svg>
