<?xml version="1.0" encoding="utf-8"?>
<!-- Generator: Adobe Illustrator 15.1.0, SVG Export Plug-In  -->
<!DOCTYPE svg PUBLIC "-//W3C//DTD SVG 1.1//EN" "http://www.w3.org/Graphics/SVG/1.1/DTD/svg11.dtd" [
	<!ENTITY ns_flows "http://ns.adobe.com/Flows/1.0/">
]>
<svg version="1.1"
	 xmlns="http://www.w3.org/2000/svg" xmlns:xlink="http://www.w3.org/1999/xlink" xmlns:a="http://ns.adobe.com/AdobeSVGViewerExtensions/3.0/"
	 x="0px" y="0px" width="4px" height="29px" viewBox="0 0 4 29" enable-background="new 0 0 4 29" xml:space="preserve">
<defs>
</defs>
<path fill="#FFFFFF" stroke="#000000" stroke-miterlimit="10" d="M1.637,0.5c0,0.205-0.07,2.308-0.07,3.794
	c0,1.487-0.491,11.126-0.631,14.253c-0.141,3.127-0.631,5.233-0.351,5.797c0.28,0.563,0.49,1.274,0.701,1.685
	c0.21,0.41,0.14,2.202,0.14,2.817h0.982c0-0.615-0.07-2.407,0.14-2.817c0.211-0.41,0.421-1.121,0.701-1.685
	c0.28-0.564-0.21-2.67-0.351-5.797C2.759,15.42,2.268,5.781,2.268,4.294c0-1.486-0.07-3.589-0.07-3.794H1.637z"/>
</svg>
