<?xml version="1.0" encoding="utf-8"?>
<!-- Generator: Adobe Illustrator 15.1.0, SVG Export Plug-In  -->
<!DOCTYPE svg PUBLIC "-//W3C//DTD SVG 1.1//EN" "http://www.w3.org/Graphics/SVG/1.1/DTD/svg11.dtd" [
	<!ENTITY ns_flows "http://ns.adobe.com/Flows/1.0/">
]>
<svg version="1.1"
	 xmlns="http://www.w3.org/2000/svg" xmlns:xlink="http://www.w3.org/1999/xlink" xmlns:a="http://ns.adobe.com/AdobeSVGViewerExtensions/3.0/"
	 x="0px" y="0px" width="46px" height="313px" viewBox="0 0 46 313" enable-background="new 0 0 46 313" xml:space="preserve">
<defs>
</defs>
<path fill="none" stroke="#000000" stroke-miterlimit="10" d="M23.732,0.5h-1.109H0.5v28.593c0,0,3.084,96.534,3.084,143.979
	c0,54.646,0.77,95.957,0.77,102.582c0,14.75,9.98,36.656,18.855,36.656s18.795-23.656,18.795-36.656
	c0-6.625,0.768-47.937,0.768-102.582c0-47.446,3.084-143.979,3.084-143.979V0.5H23.732z M23.178,244.28
	c-1.564,0-2.836-1.27-2.836-2.836s1.271-2.834,2.836-2.834c1.566,0,2.834,1.268,2.834,2.834S24.744,244.28,23.178,244.28z
	 M23.178,224.437c-1.564,0-2.836-1.27-2.836-2.834c0-1.566,1.271-2.836,2.836-2.836c1.566,0,2.834,1.27,2.834,2.836
	C26.012,223.167,24.744,224.437,23.178,224.437z M23.178,204.595c-1.564,0-2.836-1.27-2.836-2.836s1.271-2.834,2.836-2.834
	c1.566,0,2.834,1.268,2.834,2.834S24.744,204.595,23.178,204.595z M23.178,184.751c-1.564,0-2.836-1.27-2.836-2.834
	c0-1.566,1.271-2.836,2.836-2.836c1.566,0,2.834,1.27,2.834,2.836C26.012,183.481,24.744,184.751,23.178,184.751z M23.178,164.908
	c-1.564,0-2.836-1.27-2.836-2.835c0-1.566,1.271-2.834,2.836-2.834c1.566,0,2.834,1.269,2.834,2.834
	C26.012,163.639,24.744,164.908,23.178,164.908z M23.178,145.066c-1.564,0-2.836-1.27-2.836-2.835c0-1.566,1.271-2.834,2.836-2.834
	c1.566,0,2.834,1.269,2.834,2.834C26.012,143.796,24.744,145.066,23.178,145.066z M23.178,125.224c-1.564,0-2.836-1.27-2.836-2.835
	c0-1.566,1.271-2.834,2.836-2.834c1.566,0,2.834,1.269,2.834,2.834C26.012,123.954,24.744,125.224,23.178,125.224z M23.178,105.382
	c-1.564,0-2.836-1.27-2.836-2.835c0-1.566,1.271-2.834,2.836-2.834c1.566,0,2.834,1.269,2.834,2.834
	C26.012,104.112,24.744,105.382,23.178,105.382z"/>
</svg>
