<?xml version="1.0" encoding="utf-8"?>
<!-- Generator: Adobe Illustrator 15.1.0, SVG Export Plug-In  -->
<!DOCTYPE svg PUBLIC "-//W3C//DTD SVG 1.1//EN" "http://www.w3.org/Graphics/SVG/1.1/DTD/svg11.dtd" [
	<!ENTITY ns_flows "http://ns.adobe.com/Flows/1.0/">
]>
<svg version="1.1"
	 xmlns="http://www.w3.org/2000/svg" xmlns:xlink="http://www.w3.org/1999/xlink" xmlns:a="http://ns.adobe.com/AdobeSVGViewerExtensions/3.0/"
	 x="0px" y="0px" width="85px" height="85px" viewBox="0.001 0 85 85" enable-background="new 0.001 0 85 85" xml:space="preserve">
<defs>
</defs>
<circle fill="none" cx="42.521" cy="42.52" r="42.521"/>
<g>
	<path d="M45.396,73.583l-1.119,0.185c0.049-0.271,0.074-0.501,0.074-0.695c0-0.753-0.355-1.13-1.068-1.13
		c-0.514,0-0.871,0.202-1.08,0.606c-0.207,0.403-0.359,1.195-0.457,2.375c0.512-0.447,1.045-0.669,1.598-0.669
		c0.721,0,1.318,0.251,1.795,0.755c0.475,0.504,0.713,1.138,0.713,1.905c0,0.922-0.279,1.659-0.84,2.212
		c-0.559,0.553-1.303,0.829-2.232,0.829c-2.395,0-3.59-1.401-3.59-4.203c0-1.364,0.344-2.452,1.029-3.263
		c0.688-0.812,1.607-1.217,2.762-1.217c1.627,0,2.439,0.641,2.439,1.923C45.42,73.307,45.412,73.436,45.396,73.583z M42.631,75.113
		c-0.643,0-0.965,0.647-0.965,1.942c0,1.487,0.303,2.231,0.91,2.231c0.59,0,0.885-0.787,0.885-2.36
		C43.461,75.717,43.184,75.113,42.631,75.113z"/>
</g>
<g>
	<path d="M40.807,5.517v8.388h-2.348V7.588c-0.627,0.302-1.209,0.473-1.746,0.51V6.991c1.234-0.123,2.104-0.614,2.605-1.475H40.807z
		"/>
</g>
<g>
	<path d="M48.26,11.889v2.016h-6.256v-1.186c0.514-0.565,1.1-1.167,1.764-1.806c1.488-1.422,2.23-2.509,2.23-3.264
		c0-1.003-0.396-1.506-1.191-1.506c-0.967,0-1.451,0.606-1.451,1.819c0,0.287,0.07,0.689,0.209,1.21L42.27,8.866
		c-0.1-0.386-0.148-0.694-0.148-0.928c0-1.7,1.051-2.55,3.152-2.55c0.889,0,1.621,0.219,2.193,0.658
		c0.574,0.438,0.859,0.999,0.859,1.684c0,0.783-0.566,1.635-1.701,2.557L45.863,10.9l-0.842,0.707
		c-0.053,0.044-0.186,0.14-0.393,0.283H48.26z"/>
</g>
</svg>
